<svg width="69" height="11" viewBox="0 0 69 11" fill="none" xmlns="http://www.w3.org/2000/svg">
<g clip-path="url(#clip0_66_1139)">
<path d="M3.73 5.34439H11.62V2.50439H15.35V10.8844H11.62V7.56439H3.73V10.8844H0V2.50439H3.73V5.34439Z" fill="white"/>
<path d="M63.49 7.77417C63.3852 7.94057 63.2361 8.07454 63.0595 8.16107C62.8829 8.24761 62.6858 8.28329 62.49 8.26416H54.49V5.13419H62.49C62.6867 5.11606 62.8846 5.15326 63.0612 5.24161C63.2379 5.32996 63.3865 5.46594 63.49 5.63419C63.6526 5.96744 63.7371 6.33335 63.7371 6.70416C63.7371 7.07497 63.6526 7.44091 63.49 7.77417ZM39 7.65417L41.18 4.65417H42.18L44.36 7.65417H39ZM66.69 4.31418C66.3718 3.74068 65.8977 3.26908 65.3225 2.95404C64.7473 2.639 64.0945 2.49343 63.44 2.53418H50.78V10.6042L44.91 2.53418H38.48L32.62 10.6042V9.00418H21.04V7.65417H32.62V5.75418H21.04V4.43417H32.62V2.51416H17.3V10.8942H36.64L37.64 9.53418H45.79L46.79 10.8942H63.48C64.1352 10.9316 64.7877 10.7835 65.3626 10.4669C65.9374 10.1502 66.4114 9.67795 66.73 9.10419C67.1002 8.35652 67.2928 7.53349 67.2928 6.69919C67.2928 5.86489 67.1002 5.04186 66.73 4.29419" fill="white"/>
<path d="M67.76 1.17419V2.0542H67.91V1.7142H68.03H68.21L68.29 1.91422V2.01419H68.43V1.9642V1.90421V1.8342V1.70419L68.28 1.6142H68.41L68.5 1.4342L68.36 1.2142H68.12L67.76 1.17419ZM68.3 1.45419L68.21 1.57422H68.05H67.91V1.26419H68.05H68.24L68.3 1.45419ZM68.89 1.6142L68.65 1.0542L68.08 0.824219L67.52 1.0542L67.29 1.6142L67.52 2.1842L68.08 2.41422L68.65 2.1842L68.89 1.6142ZM68.08 0.934204L68.57 1.13422L68.77 1.6142L68.57 2.1142L68.08 2.31421L67.6 2.1142L67.4 1.6142L67.6 1.13422L68.08 0.934204Z" fill="white"/>
</g>
<defs>
<clipPath id="clip0_66_1139">
<rect width="68.88" height="10.06" fill="white" transform="translate(0 0.824219)"/>
</clipPath>
</defs>
</svg>
