<svg width="58" height="12" viewBox="0 0 58 12" fill="none" xmlns="http://www.w3.org/2000/svg">
<g clip-path="url(#clip0_66_1138)">
<path d="M13.2899 2.78928H4.62003V11.6593H0.850006V0.0692758H15.36C15.7718 0.0292077 16.1875 0.0747603 16.5808 0.203065C16.9742 0.33137 17.3368 0.539645 17.6458 0.81482C17.9548 1.09 18.2034 1.4261 18.3763 1.80203C18.5491 2.17796 18.6423 2.58559 18.6501 2.99927V11.6593H15.09V4.79929C15.1238 4.54317 15.1011 4.28274 15.0236 4.03632C14.946 3.78989 14.8154 3.56343 14.641 3.37283C14.4666 3.18224 14.2527 3.03213 14.0141 2.93305C13.7755 2.83396 13.5181 2.78831 13.26 2.79929" fill="white"/>
<path d="M34.74 7.41934V2.78934H25.85C25.6493 2.7739 25.4477 2.80071 25.258 2.86804C25.0683 2.93538 24.8947 3.04175 24.7487 3.18027C24.6026 3.31878 24.4872 3.48638 24.4099 3.67224C24.3327 3.85811 24.2952 4.0581 24.3 4.25934V8.96933H32.97C33.1897 8.98986 33.4113 8.96556 33.6214 8.89789C33.8314 8.83022 34.0256 8.72058 34.192 8.57565C34.3585 8.43072 34.4937 8.25352 34.5896 8.05475C34.6855 7.85598 34.7402 7.63982 34.75 7.41934M35.2899 11.6393H20.55V3.00934C20.55 1.22934 21.55 0.0693359 23.75 0.0693359H38.26V9.41934C38.26 10.6093 37.18 11.6393 35.26 11.6393" fill="white"/>
<path d="M52.98 4.2293C53.0356 4.26846 53.1019 4.28948 53.17 4.28948C53.238 4.28948 53.3044 4.26846 53.36 4.2293L57.36 0.6693C57.4126 0.627371 57.4506 0.569942 57.4687 0.505176C57.4867 0.44041 57.484 0.371587 57.4607 0.30849C57.4375 0.245394 57.3949 0.191228 57.3391 0.153675C57.2834 0.116121 57.2173 0.0970934 57.1501 0.0992923H54.08C53.7188 0.16046 53.3766 0.304175 53.08 0.519275L49.5 2.7293L51.71 4.08928C52.1462 3.98505 52.6057 4.04561 53 4.2593" fill="white"/>
<path d="M50.78 4.56934L48.62 3.22934L44.1799 0.489319C43.8827 0.275462 43.5407 0.131872 43.1799 0.069336H40.11C40.0436 0.0692841 39.9789 0.0898557 39.9248 0.128204C39.8707 0.166553 39.8297 0.220781 39.8077 0.283386C39.7858 0.345991 39.7838 0.41386 39.8021 0.477631C39.8204 0.541401 39.8582 0.597928 39.91 0.639343L45.4199 5.53934C45.4715 5.57413 45.5138 5.62104 45.543 5.67596C45.5722 5.73089 45.5874 5.79214 45.5874 5.85434C45.5874 5.91654 45.5722 5.97779 45.543 6.03271C45.5138 6.08764 45.4715 6.13455 45.4199 6.16934L39.91 11.0793C39.856 11.1188 39.8161 11.1746 39.7964 11.2385C39.7767 11.3025 39.7782 11.3711 39.8007 11.4341C39.8232 11.4971 39.8655 11.5511 39.9213 11.5881C39.977 11.6251 40.0432 11.6431 40.11 11.6393H43.1799C43.5407 11.5768 43.8827 11.4332 44.1799 11.2193L48.62 8.48932L50.7999 7.13934C50.4557 6.7941 50.2617 6.32689 50.26 5.83932C50.2599 5.36415 50.4467 4.908 50.78 4.56934Z" fill="white"/>
<path d="M51.7 0.259277H48.62H45.54L48.62 2.15928L51.7 0.259277Z" fill="white"/>
<path d="M57.36 11.0792L53.36 7.49915C53.3044 7.45998 53.238 7.43896 53.17 7.43896C53.1019 7.43896 53.0356 7.45998 52.98 7.49915C52.7136 7.63518 52.4191 7.70708 52.12 7.70914C51.9969 7.71943 51.8731 7.71943 51.75 7.70914L49.5 9.08914L53.08 11.2992C53.3785 11.5089 53.7202 11.6489 54.08 11.7091H57.1501C57.2149 11.7088 57.2781 11.6888 57.3313 11.6517C57.3845 11.6146 57.4253 11.5623 57.448 11.5015C57.4708 11.4408 57.4745 11.3746 57.4588 11.3116C57.4431 11.2487 57.4087 11.192 57.36 11.1491" fill="white"/>
<path d="M45.54 11.4493H48.62H51.7L48.62 9.54932L45.54 11.4493Z" fill="white"/>
</g>
<defs>
<clipPath id="clip0_66_1138">
<rect width="56.6" height="11.57" fill="white" transform="translate(0.880005 0.0693359)"/>
</clipPath>
</defs>
</svg>
