<svg width="60" height="18" viewBox="0 0 60 18" fill="none" xmlns="http://www.w3.org/2000/svg">
<g clip-path="url(#clip0_66_1140)">
<path d="M3.34007 2.72919V4.85919C4.74007 4.85919 5.50999 4.97918 5.50999 6.43918V14.2892C5.50999 14.7992 5.29999 15.5292 4.50999 15.5292C4.30737 15.5412 4.10631 15.4873 3.93687 15.3755C3.76743 15.2638 3.63879 15.1002 3.57005 14.9092C3.83746 14.7456 4.05862 14.5165 4.21263 14.2435C4.36664 13.9705 4.4484 13.6626 4.45005 13.3492C4.45399 13.1102 4.4108 12.8727 4.32298 12.6504C4.23516 12.4281 4.10443 12.2253 3.93821 12.0535C3.772 11.8817 3.57353 11.7443 3.35423 11.6492C3.13492 11.5541 2.89902 11.5031 2.66002 11.4992C2.42101 11.4952 2.1836 11.5384 1.96128 11.6263C1.73896 11.7141 1.53603 11.8448 1.36424 12.011C1.19245 12.1773 1.05517 12.3757 0.960064 12.595C0.864961 12.8143 0.813979 13.0502 0.81004 13.2892V13.3392C0.81004 14.3992 1.25996 17.3392 5.09996 17.3392C8.93996 17.3392 9.46995 14.7592 9.46995 12.8192V6.15918C9.46995 5.31918 10.13 4.78918 11.47 4.78918V2.65918L3.34007 2.72919Z" fill="white"/>
<path d="M31.36 11.7795C31.36 12.6395 31.23 13.0295 30.16 13.0295V15.1095H36.74V13.0395C35.36 13.0395 35.3301 12.0395 35.3301 11.3395C35.3301 11.3395 35.3301 8.62949 35.3301 7.53949C35.3403 6.97127 35.5605 6.42694 35.9482 6.01147C36.336 5.59601 36.8639 5.33882 37.43 5.28949C37.7031 5.289 37.9733 5.34443 38.2241 5.45236C38.4749 5.56029 38.701 5.71844 38.8884 5.91705C39.0758 6.11567 39.2206 6.35053 39.3137 6.60721C39.4069 6.86388 39.4464 7.13692 39.43 7.40948V11.7795C39.43 12.6395 38.89 13.0295 37.81 13.0295V15.1095H44.81V13.0395C43.15 13.0395 42.99 12.0395 42.99 11.3395V6.56949C43.0761 5.91821 42.9756 5.25586 42.7001 4.65948C42.7001 4.65948 41.93 2.7995 38.94 2.7995C38.2188 2.74987 37.4976 2.89658 36.8531 3.22409C36.2087 3.5516 35.6651 4.04766 35.28 4.65948C35.28 4.65948 34.5 2.7995 31.51 2.7995C28.73 2.7995 27.98 4.36948 27.98 4.36948V2.72949H22.39V4.8595C23.78 4.8595 24.39 5.22948 24.39 6.43948V11.6595C24.39 12.4895 23.73 13.0195 22.39 13.0195V15.1495H29.39V13.0795C29.1977 13.1039 29.0024 13.084 28.819 13.0213C28.6355 12.9586 28.469 12.8547 28.3319 12.7177C28.1948 12.5806 28.0909 12.4139 28.0282 12.2305C27.9655 12.0471 27.9455 11.8518 27.97 11.6595V7.37949C27.97 6.21949 28.51 5.26947 29.6 5.26947C30.69 5.26947 31.37 6.26948 31.37 7.43948L31.36 11.7795Z" fill="white"/>
<path d="M16.8301 2.7295C15.5895 2.7295 14.3769 3.09747 13.3456 3.78687C12.3143 4.47627 11.5106 5.45612 11.0364 6.60239C10.5621 7.74867 10.4385 9.00985 10.6813 10.2264C10.924 11.4429 11.5221 12.5601 12.4 13.4366C13.2779 14.3131 14.396 14.9094 15.6129 15.1502C16.8298 15.391 18.0909 15.2654 19.2364 14.7893C20.382 14.3132 21.3604 13.508 22.0482 12.4756C22.736 11.4432 23.1019 10.23 23.1 8.98948C23.1 8.16656 22.9378 7.35174 22.6225 6.59159C22.3073 5.83144 21.8453 5.14088 21.2629 4.55946C20.6806 3.97803 19.9893 3.51714 19.2286 3.20313C18.468 2.88913 17.653 2.72819 16.8301 2.7295ZM17.01 13.1395C15.29 13.1395 14.43 11.2795 14.43 8.98948C14.43 6.69948 15.27 4.8495 17.01 4.8495C18.75 4.8495 19.6 6.69948 19.6 8.98948C19.6 11.2795 18.71 13.1395 17.01 13.1395Z" fill="white"/>
<path d="M56.78 10.4694V12.1094C56.78 12.6494 56.62 13.0394 56.15 13.0394C55.68 13.0394 55.62 12.5494 55.62 12.1294V7.83936C55.62 6.14936 56.24 2.83936 50.13 2.83936C47.13 2.83936 45.45 4.24937 45.45 6.19937C45.4513 6.50109 45.5268 6.79783 45.6698 7.06351C45.8128 7.32918 46.0189 7.55562 46.27 7.72287C46.5211 7.89012 46.8096 7.99304 47.1098 8.02258C47.4101 8.05212 47.713 8.00737 47.9919 7.89227C48.2708 7.77717 48.5172 7.59526 48.7092 7.36255C48.9012 7.12983 49.033 6.85348 49.0931 6.5578C49.1532 6.26212 49.1397 5.9562 49.0537 5.66699C48.9677 5.37779 48.8118 5.11417 48.5999 4.89935C48.5999 4.89935 51.6 4.19935 52.01 6.14935C52.29 7.62935 51.42 7.87938 50.56 8.07938C49.7 8.27938 45.46 8.50937 45.08 11.1694C44.71 13.6494 46.08 15.1694 48.65 15.1694C49.3014 15.2249 49.9565 15.12 50.558 14.8637C51.1594 14.6074 51.6888 14.2077 52.0999 13.6994C52.4305 14.1826 52.8806 14.5719 53.4063 14.8296C53.9321 15.0872 54.5155 15.2043 55.0999 15.1694C55.4713 15.2137 55.8477 15.1813 56.206 15.0741C56.5643 14.9669 56.8967 14.7873 57.1827 14.5463C57.4687 14.3053 57.7021 14.0082 57.8685 13.6732C58.0349 13.3383 58.1307 12.9728 58.15 12.5994V10.4494L56.78 10.4694ZM51.93 10.8794C51.9477 11.1323 51.9137 11.3862 51.8302 11.6256C51.7466 11.8651 51.6154 12.085 51.4442 12.2721C51.273 12.4591 51.0655 12.6094 50.8344 12.7138C50.6034 12.8182 50.3535 12.8746 50.0999 12.8794C49.8272 12.9102 49.5515 12.8571 49.3097 12.7272C49.0678 12.5973 48.8714 12.3967 48.7464 12.1523C48.6215 11.9078 48.5741 11.6311 48.6104 11.359C48.6468 11.0869 48.7653 10.8324 48.95 10.6294C49.77 9.62936 51.95 9.32938 51.95 9.32938L51.93 10.8794Z" fill="white"/>
<path d="M57.87 3.57933C57.5457 3.57933 57.2286 3.48314 56.9589 3.30294C56.6892 3.12273 56.479 2.86658 56.3549 2.56691C56.2308 2.26724 56.1983 1.9375 56.2616 1.61937C56.3249 1.30124 56.481 1.00901 56.7103 0.779652C56.9397 0.550294 57.2319 0.39411 57.5501 0.33083C57.8682 0.26755 58.198 0.300025 58.4977 0.424153C58.7974 0.54828 59.0535 0.758491 59.2337 1.02819C59.4139 1.29788 59.51 1.61496 59.51 1.93932C59.51 2.37427 59.3372 2.79143 59.0297 3.09899C58.7221 3.40655 58.305 3.57933 57.87 3.57933ZM57.87 0.579335C57.5951 0.579335 57.3264 0.660852 57.0978 0.813588C56.8692 0.966323 56.691 1.18341 56.5858 1.4374C56.4806 1.69139 56.4531 1.97086 56.5067 2.2405C56.5604 2.51013 56.6928 2.7578 56.8872 2.9522C57.0816 3.14659 57.3293 3.27897 57.5989 3.3326C57.8685 3.38623 58.148 3.35873 58.402 3.25353C58.656 3.14832 58.873 2.97015 59.0258 2.74157C59.1785 2.51298 59.26 2.24423 59.26 1.96932C59.26 1.78678 59.224 1.60604 59.1542 1.4374C59.0843 1.26875 58.982 1.11551 58.8529 0.986439C58.7239 0.857366 58.5706 0.754993 58.402 0.685139C58.2334 0.615285 58.0526 0.579335 57.87 0.579335Z" fill="white"/>
<path d="M58.2101 2.80939L57.73 2.04941V2.65939C57.7896 2.64986 57.8504 2.64986 57.91 2.65939V2.82941H57.22V2.65939C57.2929 2.649 57.3671 2.649 57.44 2.65939V1.29941C57.3671 1.3098 57.2929 1.3098 57.22 1.29941V1.12939H57.91C58.28 1.12939 58.53 1.24941 58.53 1.60941C58.5277 1.73259 58.4792 1.85038 58.3939 1.93933C58.3087 2.02829 58.193 2.08186 58.0701 2.08939L58.17 2.23938L58.48 2.68939H58.67V2.85941L58.2101 2.80939ZM57.8401 1.26938H57.69V1.82941H57.8301C58.0601 1.82941 58.19 1.7094 58.19 1.5394C58.19 1.3694 58.0701 1.2594 57.8401 1.2594" fill="white"/>
</g>
<defs>
<clipPath id="clip0_66_1140">
<rect width="58.75" height="17.11" fill="white" transform="translate(0.76001 0.299316)"/>
</clipPath>
</defs>
</svg>
