<?xml version="1.0" encoding="utf-8"?>
<!-- Generator: Adobe Illustrator 24.1.0, SVG Export Plug-In . SVG Version: 6.00 Build 0)  -->
<svg version="1.1" id="Capa_1" xmlns="http://www.w3.org/2000/svg" xmlns:xlink="http://www.w3.org/1999/xlink" x="0px" y="0px"
	 viewBox="0 0 86.1 44" style="enable-background:new 0 0 86.1 44;" xml:space="preserve">
<style type="text/css">
	.st0{fill:#FFFFFF;}
	.st1{fill-rule:evenodd;clip-rule:evenodd;fill:#FFFFFF;}
</style>
<g>
	<path class="st0" d="M37.1,14.9c-0.4,1-0.8,2.1-0.8,3.1h6.7c1.4,0,2.7-0.4,3.4-1.3c0.6-0.6,0.6-1.8-0.3-1.8
		C46.1,14.9,37.1,14.9,37.1,14.9z M40.1,10.9c-1,0.8-1.7,1.8-2.2,2.8h8.3c1.4,0,2.4-0.7,2.8-1.3c0.4-0.7,0.1-1.5-0.6-1.5H40.1z
		 M36.7,21.1c1.7,3.5,7.4,3.9,13.2,0.4s8.4-9.4,6.9-13.1C55.1,5,49.4,4.7,43.5,8.2c-0.7,0.4-1.4,1-2,1.4h10.8c1.3,0,3.2,0.4,2.5,2.2
		c-0.7,1.8-3,2.4-3.5,2.4c0,0-0.7,0-0.7,0.1s0.3,0.1,0.4,0.1c0.6,0.1,1.8,1,0.1,2.8c-1.1,1.4-4.1,2.1-5.8,2.1h-9.3
		C36.3,20.2,36.4,20.7,36.7,21.1z M34.3,23.1c-2.5-3.8,1.1-10.5,8.2-15S57.1,3,59.6,6.8c2.5,3.8-1.1,10.5-8.2,15
		C44.6,26.3,36.9,26.9,34.3,23.1z"/>
	<path class="st1" d="M10.7,28.9h2c0.3,0,0.7,0,1,0.3c0.1,0.3,0.1,0.6-0.1,0.8c-0.3,0.4-0.8,1-1.4,1.1c-0.4,0.1-0.7,0.1-1.3,0.1H9.2
		L10.7,28.9z M8.3,32.7h2.2c0.4,0,1.7,0.3,0.8,1.4c-0.7,1.1-2.1,1.1-2.4,1.1H6.6L8.3,32.7z M47.1,36.9c0,0-0.3,0-0.4,0
		c-0.3,0-0.6,0-0.7-0.1c-0.6-0.1-1-0.6-0.8-1.3c0.1-0.4,0.8-1.7,1.7-2.1c0.8-0.6,2-0.7,6.2-1.4c0-0.1,0.1-0.3,0.3-0.4
		c0.1-0.3,0.3-0.6,0.3-0.6c0-0.1,0-0.1,0-0.3c-0.1-0.1-0.4-0.1-0.7-0.1c-0.7,0-1.3,0.6-1.7,1.1h-3.7l0.1-0.1
		c0.7-1.1,1.1-1.5,2.2-1.8c0.8-0.3,2-0.4,3.2-0.4c1.8,0,4.1,0.3,3.8,1.7c-0.1,0.3-0.3,0.6-0.4,0.8l-2.7,4.1c0,0,0,0.1-0.1,0.1v0.1
		c0,0.1,0,0.1,0,0.3l0,0c0,0,0,0,0.1,0.1l0.3,0.1h-4.2l0.3-0.7C49.9,36.2,48.7,36.9,47.1,36.9z M50.1,33.8c-0.6,0.3-1,1-1,1v0.1V35
		c0,0.1,0.1,0.1,0.3,0.1c0.3,0,0.6-0.1,0.8-0.1c0.3-0.1,0.6-0.3,0.7-0.3l1-1.5C51.3,33.4,50.5,33.5,50.1,33.8z M14.4,35.2
		c-0.7,0.7-2.5,1.5-4.5,1.5h-8l6-9.3h3.2h2.5c2.1,0,3.9,0.3,3.8,2c0,0.6-0.7,1.4-1,1.7c-0.7,0.6-0.8,0.7-2.1,0.8
		c0.6,0.3,1.1,1,0.8,1.8C15.2,34.2,14.9,34.6,14.4,35.2z M72.7,32.4c0.1-0.3,0.8-1.3,0.8-1.4c0-0.1,0-0.1,0-0.3
		c-0.1-0.1-0.4-0.1-0.7-0.1c-1,0-1.5,0.8-2.1,1.7L72.7,32.4z M75.2,34.5c-0.1,0.1-0.1,0.3-0.3,0.4c-0.1,0.1-0.3,0.3-0.3,0.4
		c-0.3,0.3-0.6,0.6-1,0.8c-0.8,0.6-2.1,0.8-4.2,0.8c-0.6,0-2.2,0-3.1-0.6c-0.4-0.3-0.8-0.7-0.6-1.4c0.3-1,2.1-3.5,2.7-4.1
		c0.6-0.6,1.8-1.5,4.9-1.5c0.7,0,1.7,0,2.5,0.3c0.8,0.3,1.4,0.7,1.3,1.5c-0.1,0.3-0.3,0.6-0.4,0.8c-0.3,0.6-0.6,0.8-1,1.5h-5.6
		c-0.1,0.3-0.8,1.5-1,1.7c0,0.1,0,0.1,0,0.3c0.1,0.1,0.4,0.1,0.7,0.1c0.8,0,1.3-0.4,1.8-1.4h3.8L75.2,34.5z M20.3,36.2
		c-0.3,0.1-1.1,0.7-3,0.7c-0.8,0-2.4-0.3-1.7-1.8c0-0.1,0.3-0.6,0.6-1.1l2.7-4.2h3.8l-2.8,4.4c-0.3,0.4-0.4,0.7-0.6,0.8
		c-0.1,0.4,0.1,0.6,0.4,0.6c0.8,0,1.4-0.8,1.8-1.5l2.7-4.2H28l-4.5,7H20L20.3,36.2z M28.4,36.7h-3.8l5.9-9.3h3.8L28.4,36.7z
		 M61.5,31.3l-2.1,3.4c-0.1,0.1-0.1,0.3-0.1,0.4c0,0.1,0,0.1,0.1,0.1s0.3,0.1,0.6,0.1c0.4,0,0.7-0.1,1-0.3c0.1,0,0.1-0.1,0.3-0.3
		c0-0.1,0.1-0.1,0.1-0.3l0.7-1.1l0.7-1.3c0.4-0.6,0.7-1.1,0.7-1.1c0-0.1,0-0.6-0.6-0.6C61.9,30.6,61.6,31,61.5,31.3z M63.6,36.7
		h-3.5l0.3-0.6c-0.6,0.3-1.4,0.7-2.8,0.7c-0.6,0-2.5-0.1-1.8-2.1c0.4-1,1.3-2.2,1.5-2.5c0.8-1.3,2.1-2.8,4.5-2.8c0.6,0,2,0,2.2,0.8
		l1.8-3h3.8L63.6,36.7z M29.7,36.7l5.9-9.3h3.8l-5.9,9.3H29.7z M42.9,30.6c-0.4,0-0.7,0.1-1,0.3c-0.1,0.1-0.1,0.1-0.3,0.3
		c-0.1,0.1-0.1,0.1-0.1,0.3l-0.8,1.3c0,0-0.4,0.6-0.7,1.1c-0.4,0.6-0.7,1.1-0.7,1.1c0,0.1,0.1,0.3,0.7,0.3c0.8,0,1.1-0.4,1.3-0.7
		l2.2-3.4c0.1-0.1,0.1-0.3,0.1-0.3C43.6,30.8,43.3,30.6,42.9,30.6z M38.4,36.2l-2.2,3.7h-3.8l6.5-10.1h3.7l-0.3,0.4
		c0.7-0.4,1.7-0.6,2.7-0.6c0.6,0,2.5,0.1,1.8,2.1c-0.4,1-1.3,2.2-1.5,2.5c-0.8,1.3-2.1,2.8-4.5,2.8c-0.7,0-1.3-0.1-1.5-0.4
		c-0.1-0.1-0.3-0.1-0.4-0.3l-0.1-0.1l0.1-0.1c0,0,0,0,0-0.1L38.4,36.2z M78.2,36.7h-3.8l5.9-9.3h3.8L78.2,36.7z"/>
</g>
</svg>
